<?xml version="1.0" encoding="utf-8"?>
<!-- Generator: Adobe Illustrator 27.1.1, SVG Export Plug-In . SVG Version: 6.00 Build 0)  -->
<svg version="1.1" id="_x35_12x512bb_xA0_00000114779561004902875120000002089267154701034142_"
    xmlns="http://www.w3.org/2000/svg" x="0px" y="0px" viewBox="0 0 512 512"
    style="enable-background:new 0 0 512 512;" xml:space="preserve">
<style type="text/css">
	.st0{fill:#245170;}
	.st1{fill:#FFFFFF;}
	.st2{fill:#F8C901;}
</style>
    <g>
	<g>
		<path class="st0" d="M0,100C0,45,45,0,100,0h312c55,0,100,45,100,100v312c0,55-45,100-100,100H100C45,512,0,467,0,412V100z"/>
	</g>
        <path class="st1" d="M298.1,393.2c-32.3,0-64.6-0.1-96.9,0.1c-9.7,0.1-17.4-4.6-24.6-9.8c-16.3-11.7-27.2-27.4-30.3-47.5
		c-4.3-27.7,4.5-50.8,26-68.9c15.3-12.8,33.3-17.5,53-16.2c1.6,0.1,4-1.3,5-2.8c8.6-11.9,19.2-21.7,32.1-28.7
		c16.3-8.9,33.8-12.5,52.4-11.2c22.4,1.5,41.6,10.2,57.8,25.3c15.3,14.2,24.9,31.9,28.5,52.5c0.5,3,1.8,4.4,4.5,5.8
		c17.3,8.8,27.6,22.6,30.9,42c4,23.6-10.1,47.5-30.8,57.4c-2.6,1.2-5.7,2-8.5,2C364.1,393.3,331.1,393.3,298.1,393.2L298.1,393.2z
		 M243.4,254.4c1.7,0.8,3.3,1.5,4.9,2.2c12.2,5.9,22.6,14,30.2,25.3c2,3,2.6,6.3-0.1,8.6c-1.9,1.6-5,2.4-7.5,2.2
		c-1.7-0.1-3.4-2.4-4.7-4c-14.4-18.1-32.9-26.6-56-23.6c-29.3,3.9-51.4,28-51.3,58.4c0.1,24.7,12.4,43.4,35.3,54.1
		c2.6,1.2,5.7,1.9,8.6,1.9c63.3,0.1,126.6,0.1,189.9,0c3,0,6.3-0.9,9-2.2c13.1-6,24.3-24.6,21-42.7c-4.7-25.4-30.5-40.5-54.9-32.1
		c-8.1,2.8-13.6,8.7-19.4,14.4c-3.1,3-7.3,3.3-10,0.6c-3.2-3.1-3.2-6.5-0.6-9.8c8.4-10.5,18.8-17.8,32.2-20.2c5.4-1,10.8-1.3,16.2-2
		c-4.1-26.7-27.2-55.8-64.3-63C290.6,216.5,256.3,233.2,243.4,254.4z"/>
        <path class="st2" d="M289.4,194.7l-5.9,1c-21.7,4.7-40,15.5-54.4,32.2c-5.1,5.9-10.2,8.3-18,8.9c-23.5,1.9-43.8,11.4-60.1,28.8
		c-3.4,3.6-6.2,7.8-9.2,11.8c-1.2,1.5-2.3,3.1-4,5.4c-12.3-34.8,0.4-87.9,52.5-110.4c37.3-16.1,83.6-1.4,98.6,21.2L289.4,194.7z"/>
        <path class="st2" d="M132.9,305.2c0,6.4,0.2,11.3-0.1,16.2c-0.1,1.2-1.3,2.7-2.5,3.4c-11.4,6.7-22.9,13.3-34.4,19.7
		c-3.7,2-8.5,0.5-10.5-2.9c-2.1-3.5-1.5-8.1,2-10.1C102,322.8,116.8,314.4,132.9,305.2z"/>
        <path class="st2" d="M232.8,149c-0.1,6.2-3.2,9.8-7.8,9.6c-4.4-0.2-7.1-3.7-7.2-9.6c-0.2-12.6-0.4-25.3-0.5-37.9
		c-0.1-5.9,3.1-9.7,7.7-9.6c4.8,0.1,7.7,3.7,7.8,9.6C232.8,117.3,232.9,142.6,232.8,149z"/>
        <path class="st2" d="M157.8,170.2c3.9,4.8,3.9,9.5,0.2,12.3
		c-3.5,2.7-7.8,1.7-11.7-2.7c-8.3-9.5-16.6-19.1-24.8-28.7c-3.9-4.5-3.9-9.4-0.3-12.3c3.7-3,8.2-2.2,12.1,2.4
		C137.4,146,153.8,165.3,157.8,170.2z"/>
        <path class="st2" d="M316,140.7c4.1-4.6,8.7-5.4,12.1-2.3
		c3.3,3,3,7.4-0.7,12c-8,9.8-16,19.5-24.1,29.3c-3.8,4.5-8.6,5.4-12.1,2.4c-3.6-3.2-3.5-7.8,0.3-12.4
		C295.5,164.8,311.8,145.4,316,140.7z"/>
        <path class="st2" d="M74.7,242.7c-6-1.3-9-5-7.8-9.5
		c1.1-4.3,5-6.2,10.8-5.2c12.4,2.3,24.9,4.6,37.3,6.9c5.8,1.1,8.9,4.9,7.9,9.4c-1,4.7-5.1,6.8-11,5.7
		C105.7,249,80.9,244.1,74.7,242.7z"/>
</g>
</svg>
